<svg xmlns="http://www.w3.org/2000/svg" xmlns:xlink="http://www.w3.org/1999/xlink" width="500" zoomAndPan="magnify" viewBox="0 0 375 374.999991" height="500" preserveAspectRatio="xMidYMid meet" version="1.0"><defs><g/><clipPath id="id1"><path d="M 64 118 L 157 118 L 157 218 L 64 218 Z M 64 118 " clip-rule="nonzero"/></clipPath><clipPath id="id2"><path d="M 15.269531 130.226562 L 139.988281 82.609375 L 187.609375 207.324219 L 62.890625 254.945312 Z M 15.269531 130.226562 " clip-rule="nonzero"/></clipPath><clipPath id="id3"><path d="M 15.269531 130.226562 L 139.988281 82.609375 L 187.609375 207.324219 L 62.890625 254.945312 Z M 15.269531 130.226562 " clip-rule="nonzero"/></clipPath><clipPath id="id4"><path d="M 67 173 L 109 173 L 109 215 L 67 215 Z M 67 173 " clip-rule="nonzero"/></clipPath><clipPath id="id5"><path d="M 15.269531 130.226562 L 139.988281 82.609375 L 187.609375 207.324219 L 62.890625 254.945312 Z M 15.269531 130.226562 " clip-rule="nonzero"/></clipPath><clipPath id="id6"><path d="M 15.269531 130.226562 L 139.988281 82.609375 L 187.609375 207.324219 L 62.890625 254.945312 Z M 15.269531 130.226562 " clip-rule="nonzero"/></clipPath><clipPath id="id7"><path d="M 85 128 L 96 128 L 96 190 L 85 190 Z M 85 128 " clip-rule="nonzero"/></clipPath><clipPath id="id8"><path d="M 15.269531 130.226562 L 139.988281 82.609375 L 187.609375 207.324219 L 62.890625 254.945312 Z M 15.269531 130.226562 " clip-rule="nonzero"/></clipPath><clipPath id="id9"><path d="M 15.269531 130.226562 L 139.988281 82.609375 L 187.609375 207.324219 L 62.890625 254.945312 Z M 15.269531 130.226562 " clip-rule="nonzero"/></clipPath><clipPath id="id10"><path d="M 78 188 L 141 188 L 141 196 L 78 196 Z M 78 188 " clip-rule="nonzero"/></clipPath><clipPath id="id11"><path d="M 15.269531 130.226562 L 139.988281 82.609375 L 187.609375 207.324219 L 62.890625 254.945312 Z M 15.269531 130.226562 " clip-rule="nonzero"/></clipPath><clipPath id="id12"><path d="M 15.269531 130.226562 L 139.988281 82.609375 L 187.609375 207.324219 L 62.890625 254.945312 Z M 15.269531 130.226562 " clip-rule="nonzero"/></clipPath><clipPath id="id13"><path d="M 77 121 L 108 121 L 108 152 L 77 152 Z M 77 121 " clip-rule="nonzero"/></clipPath><clipPath id="id14"><path d="M 15.269531 130.226562 L 139.988281 82.609375 L 187.609375 207.324219 L 62.890625 254.945312 Z M 15.269531 130.226562 " clip-rule="nonzero"/></clipPath><clipPath id="id15"><path d="M 15.269531 130.226562 L 139.988281 82.609375 L 187.609375 207.324219 L 62.890625 254.945312 Z M 15.269531 130.226562 " clip-rule="nonzero"/></clipPath><clipPath id="id16"><path d="M 123 175 L 154 175 L 154 206 L 123 206 Z M 123 175 " clip-rule="nonzero"/></clipPath><clipPath id="id17"><path d="M 15.269531 130.226562 L 139.988281 82.609375 L 187.609375 207.324219 L 62.890625 254.945312 Z M 15.269531 130.226562 " clip-rule="nonzero"/></clipPath><clipPath id="id18"><path d="M 15.269531 130.226562 L 139.988281 82.609375 L 187.609375 207.324219 L 62.890625 254.945312 Z M 15.269531 130.226562 " clip-rule="nonzero"/></clipPath></defs><g clip-path="url(#id1)"><g clip-path="url(#id2)"><g clip-path="url(#id3)"><path fill="#6ce200" d="M 153.445312 179.917969 C 148.699219 173.320312 140.09375 170.730469 132.511719 173.625 C 131.070312 174.175781 129.699219 174.917969 128.4375 175.824219 C 124.550781 178.617188 121.984375 182.757812 121.210938 187.484375 C 121.148438 187.851562 121.101562 188.21875 121.066406 188.589844 L 110.984375 189.179688 C 110.328125 185.941406 108.996094 182.847656 107.007812 180.082031 C 103.34375 174.984375 97.917969 171.707031 92.042969 170.644531 L 93.882812 154.042969 C 95.683594 153.941406 97.492188 153.566406 99.246094 152.898438 C 100.6875 152.347656 102.058594 151.609375 103.320312 150.699219 C 107.207031 147.910156 109.773438 143.769531 110.546875 139.046875 C 111.320312 134.320312 110.203125 129.582031 107.414062 125.691406 C 102.667969 119.097656 94.0625 116.511719 86.476562 119.40625 C 85.039062 119.957031 83.667969 120.695312 82.402344 121.605469 C 74.382812 127.371094 72.546875 138.589844 78.3125 146.613281 C 80.796875 150.074219 84.347656 152.429688 88.257812 153.46875 L 86.394531 170.308594 C 84.066406 170.457031 81.726562 170.945312 79.464844 171.8125 C 77.566406 172.535156 75.765625 173.503906 74.105469 174.699219 C 68.992188 178.378906 65.613281 183.828125 64.597656 190.039062 C 63.582031 196.257812 65.042969 202.496094 68.722656 207.609375 C 74.960938 216.289062 86.285156 219.695312 96.265625 215.882812 C 98.164062 215.160156 99.964844 214.1875 101.628906 212.992188 C 106.738281 209.316406 110.117188 203.871094 111.136719 197.652344 C 111.289062 196.703125 111.378906 195.757812 111.417969 194.8125 L 121.390625 194.230469 C 121.90625 196.578125 122.898438 198.824219 124.34375 200.835938 C 129.085938 207.433594 137.695312 210.015625 145.277344 207.121094 C 146.714844 206.570312 148.089844 205.832031 149.351562 204.925781 C 153.238281 202.132812 155.804688 197.992188 156.574219 193.269531 C 157.351562 188.542969 156.234375 183.804688 153.445312 179.917969 " fill-opacity="1" fill-rule="nonzero"/></g></g></g><g clip-path="url(#id4)"><g clip-path="url(#id5)"><g clip-path="url(#id6)"><path fill="#6ce200" d="M 104.714844 181.734375 C 111.40625 191.039062 109.28125 204.007812 99.976562 210.695312 C 90.671875 217.386719 77.703125 215.265625 71.015625 205.960938 C 64.324219 196.652344 66.449219 183.6875 75.753906 176.996094 C 85.058594 170.304688 98.027344 172.429688 104.714844 181.734375 " fill-opacity="1" fill-rule="nonzero"/></g></g></g><g clip-path="url(#id7)"><g clip-path="url(#id8)"><g clip-path="url(#id9)"><path fill="#6ce200" d="M 88.6875 188.113281 L 95.15625 129.699219 C 95.238281 128.921875 94.679688 128.222656 93.90625 128.136719 C 93.128906 128.050781 92.429688 128.609375 92.34375 129.386719 L 85.878906 187.800781 C 85.792969 188.578125 86.351562 189.273438 87.125 189.363281 C 87.90625 189.449219 88.601562 188.890625 88.6875 188.113281 " fill-opacity="1" fill-rule="nonzero"/></g></g></g><g clip-path="url(#id10)"><g clip-path="url(#id11)"><g clip-path="url(#id12)"><path fill="#6ce200" d="M 80.300781 195.222656 L 138.976562 191.78125 C 139.753906 191.738281 140.351562 191.070312 140.300781 190.292969 C 140.257812 189.511719 139.589844 188.917969 138.808594 188.960938 L 80.136719 192.402344 C 79.355469 192.445312 78.761719 193.113281 78.808594 193.894531 C 78.851562 194.671875 79.523438 195.265625 80.300781 195.222656 " fill-opacity="1" fill-rule="nonzero"/></g></g></g><g clip-path="url(#id13)"><g clip-path="url(#id14)"><g clip-path="url(#id15)"><path fill="#6ce200" d="M 105.117188 127.34375 C 109.980469 134.113281 108.441406 143.542969 101.671875 148.40625 C 94.902344 153.273438 85.472656 151.730469 80.605469 144.960938 C 75.742188 138.195312 77.28125 128.765625 84.050781 123.898438 C 90.820312 119.03125 100.253906 120.574219 105.117188 127.34375 " fill-opacity="1" fill-rule="nonzero"/></g></g></g><g clip-path="url(#id16)"><g clip-path="url(#id17)"><g clip-path="url(#id18)"><path fill="#6ce200" d="M 151.148438 181.566406 C 156.015625 188.335938 154.472656 197.765625 147.703125 202.628906 C 140.933594 207.496094 131.503906 205.953125 126.636719 199.183594 C 121.773438 192.417969 123.316406 182.984375 130.085938 178.117188 C 136.855469 173.25 146.28125 174.796875 151.148438 181.566406 " fill-opacity="1" fill-rule="nonzero"/></g></g></g><g fill="#000000" fill-opacity="1"><g transform="translate(171.883806, 175.610672)"><g><path d="M 7.234375 -40.625 C 10.023438 -43.9375 15.007812 -45.59375 22.1875 -45.59375 C 29.363281 -45.59375 34.351562 -43.9375 37.15625 -40.625 C 39.96875 -37.320312 41.375 -31.238281 41.375 -22.375 C 41.375 -13.507812 39.96875 -7.421875 37.15625 -4.109375 C 34.351562 -0.804688 29.363281 0.84375 22.1875 0.84375 C 15.007812 0.84375 10.023438 -0.804688 7.234375 -4.109375 C 4.441406 -7.421875 3.046875 -13.507812 3.046875 -22.375 C 3.046875 -31.238281 4.441406 -37.320312 7.234375 -40.625 Z M 29.078125 -34.4375 C 27.847656 -36.5625 25.546875 -37.625 22.171875 -37.625 C 18.804688 -37.625 16.503906 -36.5625 15.265625 -34.4375 C 14.035156 -32.320312 13.421875 -28.300781 13.421875 -22.375 C 13.421875 -16.445312 14.035156 -12.425781 15.265625 -10.3125 C 16.503906 -8.195312 18.804688 -7.140625 22.171875 -7.140625 C 25.546875 -7.140625 27.847656 -8.195312 29.078125 -10.3125 C 30.316406 -12.425781 30.9375 -16.445312 30.9375 -22.375 C 30.9375 -28.300781 30.316406 -32.320312 29.078125 -34.4375 Z M 29.078125 -34.4375 "/></g></g></g><g fill="#000000" fill-opacity="1"><g transform="translate(216.242248, 175.610672)"><g><path d="M 37.8125 -36.703125 L 24.453125 -36.703125 L 24.453125 0 L 14.53125 0 L 14.53125 -36.703125 L 1.171875 -36.703125 L 1.171875 -44.75 L 37.8125 -44.75 Z M 37.8125 -36.703125 "/></g></g></g><g fill="#000000" fill-opacity="1"><g transform="translate(172.821306, 210.167974)"><g><path d="M 2.546875 -14.359375 C 3.535156 -15.535156 5.300781 -16.125 7.84375 -16.125 C 10.382812 -16.125 12.148438 -15.535156 13.140625 -14.359375 C 14.140625 -13.191406 14.640625 -11.039062 14.640625 -7.90625 C 14.640625 -4.78125 14.140625 -2.628906 13.140625 -1.453125 C 12.148438 -0.285156 10.382812 0.296875 7.84375 0.296875 C 5.300781 0.296875 3.535156 -0.285156 2.546875 -1.453125 C 1.566406 -2.628906 1.078125 -4.78125 1.078125 -7.90625 C 1.078125 -11.039062 1.566406 -13.191406 2.546875 -14.359375 Z M 10.28125 -12.171875 C 9.851562 -12.921875 9.039062 -13.296875 7.84375 -13.296875 C 6.65625 -13.296875 5.84375 -12.921875 5.40625 -12.171875 C 4.96875 -11.429688 4.75 -10.007812 4.75 -7.90625 C 4.75 -5.8125 4.96875 -4.390625 5.40625 -3.640625 C 5.84375 -2.890625 6.65625 -2.515625 7.84375 -2.515625 C 9.039062 -2.515625 9.851562 -2.890625 10.28125 -3.640625 C 10.71875 -4.390625 10.9375 -5.8125 10.9375 -7.90625 C 10.9375 -10.007812 10.71875 -11.429688 10.28125 -12.171875 Z M 10.28125 -12.171875 "/></g></g></g><g fill="#000000" fill-opacity="1"><g transform="translate(188.507894, 210.167974)"><g><path d="M 4.765625 -16.0625 L 4.765625 -12.453125 C 4.765625 -11.398438 4.664062 -10.515625 4.46875 -9.796875 C 5.664062 -11.015625 7.003906 -11.625 8.484375 -11.625 C 9.953125 -11.625 11.007812 -11.171875 11.65625 -10.265625 C 12.3125 -9.359375 12.640625 -7.851562 12.640625 -5.75 C 12.640625 -3.8125 12.238281 -2.320312 11.4375 -1.28125 C 10.644531 -0.238281 9.203125 0.28125 7.109375 0.28125 C 6.191406 0.28125 5.160156 0.203125 4.015625 0.046875 C 2.878906 -0.109375 1.992188 -0.320312 1.359375 -0.59375 L 1.359375 -16.0625 Z M 4.75 -7.953125 L 4.75 -2.453125 C 5.53125 -2.285156 6.296875 -2.21875 7.046875 -2.25 C 7.828125 -2.28125 8.375 -2.539062 8.6875 -3.03125 C 9 -3.519531 9.15625 -4.421875 9.15625 -5.734375 C 9.15625 -6.984375 9.023438 -7.828125 8.765625 -8.265625 C 8.503906 -8.703125 7.960938 -8.921875 7.140625 -8.921875 C 6.503906 -8.921875 5.707031 -8.597656 4.75 -7.953125 Z M 4.75 -7.953125 "/></g></g></g><g fill="#000000" fill-opacity="1"><g transform="translate(202.084591, 210.167974)"><g><path d="M 2.4375 -16.40625 L 3.921875 -16.40625 C 4.578125 -16.40625 4.90625 -16.070312 4.90625 -15.40625 L 4.90625 -14.171875 C 4.90625 -13.515625 4.578125 -13.1875 3.921875 -13.1875 L 2.4375 -13.1875 C 1.769531 -13.1875 1.4375 -13.515625 1.4375 -14.171875 L 1.4375 -15.40625 C 1.4375 -16.070312 1.769531 -16.40625 2.4375 -16.40625 Z M 4.890625 -11.3125 L 4.890625 -0.53125 C 4.890625 0.53125 4.628906 1.515625 4.109375 2.421875 C 3.585938 3.328125 2.875 4.023438 1.96875 4.515625 L 0.109375 3.03125 C 1.046875 1.96875 1.515625 0.78125 1.515625 -0.53125 L 1.515625 -11.3125 Z M 4.890625 -11.3125 "/></g></g></g><g fill="#000000" fill-opacity="1"><g transform="translate(208.460128, 210.167974)"><g><path d="M 8.609375 -4.515625 L 4.515625 -4.515625 C 4.617188 -3.691406 4.863281 -3.140625 5.25 -2.859375 C 5.644531 -2.578125 6.296875 -2.4375 7.203125 -2.4375 C 8.410156 -2.4375 9.816406 -2.519531 11.421875 -2.6875 L 11.75 -0.578125 C 10.570312 -0.00390625 8.925781 0.28125 6.8125 0.28125 C 4.6875 0.28125 3.171875 -0.175781 2.265625 -1.09375 C 1.367188 -2.019531 0.921875 -3.535156 0.921875 -5.640625 C 0.921875 -7.859375 1.359375 -9.410156 2.234375 -10.296875 C 3.117188 -11.179688 4.597656 -11.625 6.671875 -11.625 C 8.554688 -11.625 9.914062 -11.296875 10.75 -10.640625 C 11.59375 -9.992188 12.023438 -9.007812 12.046875 -7.6875 C 12.046875 -6.625 11.769531 -5.828125 11.21875 -5.296875 C 10.675781 -4.773438 9.804688 -4.515625 8.609375 -4.515625 Z M 4.453125 -6.5625 L 7.65625 -6.5625 C 8.070312 -6.5625 8.351562 -6.660156 8.5 -6.859375 C 8.644531 -7.054688 8.71875 -7.347656 8.71875 -7.734375 C 8.71875 -8.265625 8.578125 -8.632812 8.296875 -8.84375 C 8.023438 -9.050781 7.523438 -9.15625 6.796875 -9.15625 C 5.921875 -9.15625 5.320312 -8.984375 5 -8.640625 C 4.675781 -8.296875 4.492188 -7.601562 4.453125 -6.5625 Z M 4.453125 -6.5625 "/></g></g></g><g fill="#000000" fill-opacity="1"><g transform="translate(221.30295, 210.167974)"><g><path d="M 10.671875 -2.6875 L 10.96875 -0.484375 C 9.800781 0.0234375 8.335938 0.28125 6.578125 0.28125 C 4.503906 0.28125 3.039062 -0.164062 2.1875 -1.0625 C 1.34375 -1.957031 0.921875 -3.492188 0.921875 -5.671875 C 0.921875 -7.859375 1.347656 -9.394531 2.203125 -10.28125 C 3.054688 -11.175781 4.53125 -11.625 6.625 -11.625 C 8.34375 -11.625 9.734375 -11.390625 10.796875 -10.921875 L 10.4375 -8.8125 C 8.78125 -8.84375 7.703125 -8.859375 7.203125 -8.859375 C 6.160156 -8.859375 5.441406 -8.632812 5.046875 -8.1875 C 4.660156 -7.75 4.46875 -6.910156 4.46875 -5.671875 C 4.46875 -4.429688 4.660156 -3.585938 5.046875 -3.140625 C 5.441406 -2.703125 6.160156 -2.484375 7.203125 -2.484375 C 8.535156 -2.484375 9.691406 -2.550781 10.671875 -2.6875 Z M 10.671875 -2.6875 "/></g></g></g><g fill="#000000" fill-opacity="1"><g transform="translate(232.930284, 210.167974)"><g><path d="M 5.796875 -9.03125 L 5.796875 -3.6875 C 5.796875 -3.257812 5.890625 -2.960938 6.078125 -2.796875 C 6.265625 -2.628906 6.585938 -2.546875 7.046875 -2.546875 L 8.484375 -2.546875 L 8.859375 -0.1875 C 7.984375 0.125 6.921875 0.28125 5.671875 0.28125 C 4.640625 0.28125 3.84375 -0.00390625 3.28125 -0.578125 C 2.71875 -1.148438 2.4375 -1.953125 2.4375 -2.984375 L 2.4375 -9.03125 L 0.4375 -9.03125 L 0.4375 -11.1875 L 2.4375 -11.3125 L 2.4375 -14.46875 L 5.796875 -14.46875 L 5.796875 -11.3125 L 8.953125 -11.3125 L 8.953125 -9.03125 Z M 5.796875 -9.03125 "/></g></g></g><g fill="#000000" fill-opacity="1"><g transform="translate(242.355992, 210.167974)"><g/></g></g><g fill="#000000" fill-opacity="1"><g transform="translate(247.332581, 210.167974)"><g><path d="M 13.375 -12.984375 L 8.640625 -12.984375 L 8.640625 0 L 5.140625 0 L 5.140625 -12.984375 L 0.40625 -12.984375 L 0.40625 -15.828125 L 13.375 -15.828125 Z M 13.375 -12.984375 "/></g></g></g><g fill="#000000" fill-opacity="1"><g transform="translate(261.115673, 210.167974)"><g><path d="M 8.609375 -4.515625 L 4.515625 -4.515625 C 4.617188 -3.691406 4.863281 -3.140625 5.25 -2.859375 C 5.644531 -2.578125 6.296875 -2.4375 7.203125 -2.4375 C 8.410156 -2.4375 9.816406 -2.519531 11.421875 -2.6875 L 11.75 -0.578125 C 10.570312 -0.00390625 8.925781 0.28125 6.8125 0.28125 C 4.6875 0.28125 3.171875 -0.175781 2.265625 -1.09375 C 1.367188 -2.019531 0.921875 -3.535156 0.921875 -5.640625 C 0.921875 -7.859375 1.359375 -9.410156 2.234375 -10.296875 C 3.117188 -11.179688 4.597656 -11.625 6.671875 -11.625 C 8.554688 -11.625 9.914062 -11.296875 10.75 -10.640625 C 11.59375 -9.992188 12.023438 -9.007812 12.046875 -7.6875 C 12.046875 -6.625 11.769531 -5.828125 11.21875 -5.296875 C 10.675781 -4.773438 9.804688 -4.515625 8.609375 -4.515625 Z M 4.453125 -6.5625 L 7.65625 -6.5625 C 8.070312 -6.5625 8.351562 -6.660156 8.5 -6.859375 C 8.644531 -7.054688 8.71875 -7.347656 8.71875 -7.734375 C 8.71875 -8.265625 8.578125 -8.632812 8.296875 -8.84375 C 8.023438 -9.050781 7.523438 -9.15625 6.796875 -9.15625 C 5.921875 -9.15625 5.320312 -8.984375 5 -8.640625 C 4.675781 -8.296875 4.492188 -7.601562 4.453125 -6.5625 Z M 4.453125 -6.5625 "/></g></g></g><g fill="#000000" fill-opacity="1"><g transform="translate(273.958495, 210.167974)"><g><path d="M 10.671875 -2.6875 L 10.96875 -0.484375 C 9.800781 0.0234375 8.335938 0.28125 6.578125 0.28125 C 4.503906 0.28125 3.039062 -0.164062 2.1875 -1.0625 C 1.34375 -1.957031 0.921875 -3.492188 0.921875 -5.671875 C 0.921875 -7.859375 1.347656 -9.394531 2.203125 -10.28125 C 3.054688 -11.175781 4.53125 -11.625 6.625 -11.625 C 8.34375 -11.625 9.734375 -11.390625 10.796875 -10.921875 L 10.4375 -8.8125 C 8.78125 -8.84375 7.703125 -8.859375 7.203125 -8.859375 C 6.160156 -8.859375 5.441406 -8.632812 5.046875 -8.1875 C 4.660156 -7.75 4.46875 -6.910156 4.46875 -5.671875 C 4.46875 -4.429688 4.660156 -3.585938 5.046875 -3.140625 C 5.441406 -2.703125 6.160156 -2.484375 7.203125 -2.484375 C 8.535156 -2.484375 9.691406 -2.550781 10.671875 -2.6875 Z M 10.671875 -2.6875 "/></g></g></g><g fill="#000000" fill-opacity="1"><g transform="translate(285.585829, 210.167974)"><g><path d="M 4.8125 -16.0625 L 4.8125 -12.140625 C 4.8125 -11.359375 4.742188 -10.566406 4.609375 -9.765625 C 6.179688 -11.003906 7.726562 -11.625 9.25 -11.625 C 10.269531 -11.625 11.050781 -11.359375 11.59375 -10.828125 C 12.132812 -10.296875 12.40625 -9.515625 12.40625 -8.484375 L 12.40625 0 L 9.03125 0 L 9.03125 -7.4375 C 9.03125 -7.9375 8.953125 -8.28125 8.796875 -8.46875 C 8.640625 -8.664062 8.351562 -8.765625 7.9375 -8.765625 C 7.125 -8.765625 6.078125 -8.421875 4.796875 -7.734375 L 4.796875 0 L 1.40625 0 L 1.40625 -16.0625 Z M 4.8125 -16.0625 "/></g></g></g><g fill="#000000" fill-opacity="1"><g transform="translate(299.323052, 210.167974)"><g/></g></g><g fill="#000000" fill-opacity="1"><g transform="translate(304.299641, 210.167974)"><g><path d="M 5.046875 -15.828125 L 5.046875 -4.015625 C 5.046875 -3.597656 5.140625 -3.296875 5.328125 -3.109375 C 5.523438 -2.929688 5.84375 -2.84375 6.28125 -2.84375 L 11.71875 -2.84375 L 11.875 -0.1875 C 10.332031 -0.0195312 8.101562 0.0625 5.1875 0.0625 C 3.957031 0.0625 3.046875 -0.238281 2.453125 -0.84375 C 1.859375 -1.457031 1.5625 -2.273438 1.5625 -3.296875 L 1.5625 -15.828125 Z M 5.046875 -15.828125 "/></g></g></g><g fill="#000000" fill-opacity="1"><g transform="translate(316.500313, 210.167974)"><g><path d="M 1.703125 -8.78125 L 1.375 -11.078125 C 3.40625 -11.441406 5.367188 -11.625 7.265625 -11.625 C 8.796875 -11.625 9.921875 -11.3125 10.640625 -10.6875 C 11.359375 -10.070312 11.71875 -9.003906 11.71875 -7.484375 L 11.71875 0 L 9.03125 0 L 8.6875 -1.71875 C 7.5625 -0.382812 6.171875 0.28125 4.515625 0.28125 C 3.429688 0.28125 2.546875 -0.00390625 1.859375 -0.578125 C 1.171875 -1.148438 0.828125 -1.953125 0.828125 -2.984375 L 0.828125 -4.125 C 0.828125 -5.03125 1.128906 -5.734375 1.734375 -6.234375 C 2.347656 -6.742188 3.203125 -7 4.296875 -7 L 8.328125 -7 L 8.328125 -7.5 C 8.304688 -8.082031 8.171875 -8.472656 7.921875 -8.671875 C 7.671875 -8.867188 7.1875 -8.96875 6.46875 -8.96875 C 5.21875 -8.96875 3.628906 -8.90625 1.703125 -8.78125 Z M 4.171875 -3.875 L 4.171875 -3.4375 C 4.171875 -2.65625 4.613281 -2.265625 5.5 -2.265625 C 6.414062 -2.265625 7.359375 -2.632812 8.328125 -3.375 L 8.328125 -4.953125 L 5.28125 -4.953125 C 4.539062 -4.941406 4.171875 -4.582031 4.171875 -3.875 Z M 4.171875 -3.875 "/></g></g></g><g fill="#000000" fill-opacity="1"><g transform="translate(329.503661, 210.167974)"><g><path d="M 4.765625 -16.0625 L 4.765625 -12.453125 C 4.765625 -11.398438 4.664062 -10.515625 4.46875 -9.796875 C 5.664062 -11.015625 7.003906 -11.625 8.484375 -11.625 C 9.953125 -11.625 11.007812 -11.171875 11.65625 -10.265625 C 12.3125 -9.359375 12.640625 -7.851562 12.640625 -5.75 C 12.640625 -3.8125 12.238281 -2.320312 11.4375 -1.28125 C 10.644531 -0.238281 9.203125 0.28125 7.109375 0.28125 C 6.191406 0.28125 5.160156 0.203125 4.015625 0.046875 C 2.878906 -0.109375 1.992188 -0.320312 1.359375 -0.59375 L 1.359375 -16.0625 Z M 4.75 -7.953125 L 4.75 -2.453125 C 5.53125 -2.285156 6.296875 -2.21875 7.046875 -2.25 C 7.828125 -2.28125 8.375 -2.539062 8.6875 -3.03125 C 9 -3.519531 9.15625 -4.421875 9.15625 -5.734375 C 9.15625 -6.984375 9.023438 -7.828125 8.765625 -8.265625 C 8.503906 -8.703125 7.960938 -8.921875 7.140625 -8.921875 C 6.503906 -8.921875 5.707031 -8.597656 4.75 -7.953125 Z M 4.75 -7.953125 "/></g></g></g></svg>